# xmcd
#
# Track frame offsets:
#	150
#	10159
#	24120
#	38037
#	50620
#	62635
#	73630
#	83910
#	99527
#	111995
#	123579
#	133465
#	148450
#	160732
#	174957
#	188475
#	202937
#	213197
#	223130
#	235860
#	251920
#
# Disc length: 3595 seconds
#
# Revision: 0
# Processed by: cddbd v1.5.2PL0 Copyright (c) Steve Scherf et al.
# Submitted via: dBpowerAMP V4.0
#
DISCID=310e0915
DTITLE=W.C. Handy Style - W.C. Handy - Beale Street
DYEAR=2002
DGENRE=Blues
TTITLE0=Memphis Blues
TTITLE1=Harlem Blues
TTITLE2=Aunt Harar's Childern Blues
TTITLE3=St. Louis Blues
TTITLE4=Yellow Dog Blues
TTITLE5=Friendless Blues
TTITLE6=Atlanta Blues
TTITLE7=The Basement Blues
TTITLE8=Joe Turner Blues
TTITLE9=Blue-Gummed Blues
TTITLE10=The Hesitating Blues
TTITLE11=Loveless Love
TTITLE12=John Henry Blues
TTITLE13=Wall Street Blues
TTITLE14=Sundown Blues
TTITLE15=Ole Miss
TTITLE16=Golden Brown Blues
TTITLE17=Chantez les Bas (Sing 'em Low)
TTITLE18=The Jogo Blues
TTITLE19=Way Down South Where the Blues Began
TTITLE20=Beale Street Blues
EXTD=ISC-0516 - Inside Sounds
EXTT0=
EXTT1=
EXTT2=
EXTT3=
EXTT4=
EXTT5=
EXTT6=
EXTT7=
EXTT8=
EXTT9=
EXTT10=
EXTT11=
EXTT12=
EXTT13=
EXTT14=
EXTT15=
EXTT16=
EXTT17=
EXTT18=
EXTT19=
EXTT20=
PLAYORDER=
